<svg xmlns="http://www.w3.org/2000/svg" viewBox="0 0 620.61 165.44"><defs><style>.cls-1{opacity:0.39;}.cls-2{fill:lime;}.cls-3{fill:#ff0;}.cls-4,.cls-7,.cls-8{fill:none;stroke-miterlimit:10;}.cls-4{stroke:lime;stroke-width:14px;}.cls-5,.cls-7{opacity:0.86;}.cls-6{fill:#666;}.cls-7,.cls-8{stroke:#666;}.cls-7{stroke-width:1.4px;}.cls-8{stroke-width:1.3px;}</style></defs><g id="Layer_2" data-name="Layer 2"><g class="cls-1"><path class="cls-2" d="M-17.78,101.06q106.51-.5,213-1.23,105.83-.72,211.64-1.68Q466.44,97.61,526,97c11-.11,21.51-9.58,21-21s-9.23-21.12-21-21Q419.85,56.1,313.7,57q-106,.86-211.93,1.48-59.77.34-119.55.63c-11,0-21.51,9.62-21,21s9.23,21,21,21Z" transform="translate(57.59 0.44)"/></g><g class="cls-1"><path class="cls-2" d="M-23.94,164.91h217.6q108.53,0,217.05,0,58.65,0,117.29.07c11,0,21.51-9.67,21-21s-9.23-21-21-21q-106.26-.14-212.51-.09H-23.94c-11,0-21.51,9.66-21,21s9.22,21,21,21Z" transform="translate(57.59 0.44)"/></g><g class="cls-1"><path class="cls-3" d="M-33.83,133.27q112.64-.44,225.29-.11,112.07.33,224.13,1.42Q478.8,135.2,542,136c11,.15,21.5-9.76,21-21-.52-11.5-9.23-20.84-21-21q-112.62-1.52-225.25-2.27Q204.67,91,92.61,91q-63.22,0-126.44.25c-11,0-21.51,9.63-21,21s9.23,21,21,21Z" transform="translate(57.59 0.44)"/></g><g class="cls-1"><path class="cls-3" d="M-36.57,71q111.21.63,222.41.88,110.66.25,221.32.11,62.41-.09,124.84-.29c11,0,21.51-9.63,21-21s-9.23-21-21-21Q420.78,30,309.55,30,198.9,30,88.24,29.55,25.84,29.31-36.57,29c-11-.07-21.51,9.7-21,21s9.23,20.93,21,21Z" transform="translate(57.59 0.44)"/></g><g class="cls-1"><path class="cls-2" d="M-22.83,41.79l211.58-.09,210.5-.09,118.75,0c11,0,21.51-9.65,21-21s-9.23-21-21-21L306.42-.35,95.91-.26-22.83-.21c-11,0-21.51,9.65-21,21s9.23,21,21,21Z" transform="translate(57.59 0.44)"/></g><path class="cls-4" d="M678,98" transform="translate(57.59 0.44)"/></g><g id="Layer_1" data-name="Layer 1"><g class="cls-5"><path class="cls-6" d="M76.15,46.91A29.88,29.88,0,0,0,53,56.92,30.5,30.5,0,0,0,46.83,68.1c-1,3.47-2.27,8.63.34,11.71,1.56,1.85,4,2,6.22,1.77a24.89,24.89,0,0,0,7-1.51c2-.74,4-2,6.17-2a6.57,6.57,0,0,1,4.79,2.34A13.6,13.6,0,0,1,74.18,86a51.23,51.23,0,0,1,1.45,6.47c.27,1.85.37,4-.84,5.59a6,6,0,0,1-3.91,2c-4.49.67-8.51-2-12.38-3.87A24.46,24.46,0,0,0,42.61,94c-2.65.56-1.53,4.61,1.11,4a20.19,20.19,0,0,1,13.25,2c3.86,1.89,7.69,4.12,12.11,4.24,3.65.11,7.49-1.24,9.52-4.44,2.45-3.86,1.14-8.83.17-12.94-1-4.34-2.72-8.57-6.47-11.23a9.78,9.78,0,0,0-5.76-1.86c-2.39,0-4.5,1.07-6.67,2a21.9,21.9,0,0,1-6.7,1.62c-.7,0-2,.28-2.62-.11s-.62-1.15-.67-1.68c-.34-3.81,1.3-8.14,3.11-11.41A25.7,25.7,0,0,1,76.15,51.11c2.7.07,2.7-4.13,0-4.2Z" transform="translate(57.59 0.44)"/></g><g class="cls-5"><path class="cls-6" d="M85.14,72.86l0,8c0,2.68-.17,5.4,0,8.07.35,4.77,3.64,8.62,7.58,11.09,3.59,2.25,8.22,2.78,11.82.26a15.19,15.19,0,0,0,5.87-9.77c1-5.64-.48-11.32,0-17,.23-2.69-4-2.68-4.2,0-.37,4.38.45,8.73.37,13.1,0,3.16-.79,6.53-3,8.94a6.25,6.25,0,0,1-8,1.25c-3.08-1.69-6.07-4.68-6.23-8.35-.22-5.16,0-10.38,0-15.55,0-2.7-4.19-2.7-4.2,0Z" transform="translate(57.59 0.44)"/></g><g class="cls-5"><path class="cls-6" d="M116.79,57.7c3.22,19.29,3.36,38.92,3,58.42-.07,4.72,0,9.45-.31,14.17-.21,3.77-.76,8-3.15,11-.95,1.22-2.54,2.53-4.18,2.45a3.13,3.13,0,0,1-2.69-2.44c-1.19-3.73,1.86-7.58,3.69-10.57,4.24-7,8.66-13.91,14.59-19.56a44.57,44.57,0,0,1,10.3-7.23c4-2.07,8.1-3.84,11.84-6.3,6.13-4,12.1-9.67,14.93-16.56a16.55,16.55,0,0,0,.75-8.49c-.28-2.5-.6-5-1.93-7.23-3.19-5.25-9.09-9.59-15.31-10a13.55,13.55,0,0,0-9.88,3.48c-2.66,2.39-4.28,5.74-5.48,9-.61,1.66-1.1,3.35-1.56,5-.71,2.62,3.34,3.73,4.05,1.12,1.61-5.92,4.15-14.2,11.56-14.5,5.47-.23,11,4.07,13.4,8.68.07.13.28.64.13.24q.1.28.18.57a22.62,22.62,0,0,1,.54,2.82c0,.13.13,1,.07.5a2.3,2.3,0,0,1,0,.26c.09.78.16,1.57.2,2.36a12,12,0,0,1-2.09,7.42c-4.28,7-11.14,11.76-18.34,15.34a77.54,77.54,0,0,0-11.47,6.42,52.89,52.89,0,0,0-9,8.47,98,98,0,0,0-7.42,10.12,112.15,112.15,0,0,0-6.47,10.64c-1.79,3.58-2.63,7.95-.19,11.47s7,3.91,10.38,1.56c7.36-5,6.79-15.65,6.94-23.49.38-19.7.59-39.49-2-59.06q-.48-3.66-1.08-7.29a2.12,2.12,0,0,0-2.59-1.47,2.15,2.15,0,0,0-1.46,2.58Z" transform="translate(57.59 0.44)"/></g><g class="cls-5"><path class="cls-6" d="M181.3,83.53c7.4-2.17,15.63-7.87,17.32-15.88.67-3.21.76-7.34-2.18-9.49-1.92-1.4-4.88-1.53-7.16-1.43A15,15,0,0,0,179,61c-3,3.07-4.26,7.51-4.68,11.65-.7,6.92,1.52,14,4.78,20.1,2.1,3.9,4.72,7.3,8.9,9.09a20.12,20.12,0,0,0,12.57.82c2.63-.63,1.52-4.68-1.11-4.05a16.43,16.43,0,0,1-8.24-.06c-3.87-1.09-6.23-3.82-8.11-7.22a35.53,35.53,0,0,1-4.58-13.68c-.61-6.43,1-14.51,8.1-16.35a14.13,14.13,0,0,1,3.66-.41c.52,0,1,.05,1.55.09l.36,0-.15,0a5.43,5.43,0,0,1,.56.09c.76.15,1.45.3,1.82,1a6.34,6.34,0,0,1,.27,3.51,13.76,13.76,0,0,1-4.29,7.84,24.9,24.9,0,0,1-10.25,6c-2.59.75-1.48,4.81,1.12,4Z" transform="translate(57.59 0.44)"/></g><g class="cls-5"><path class="cls-6" d="M205.17,57.26l10.65,42.45c.66,2.62,4.71,1.51,4.05-1.12L209.22,56.14c-.66-2.62-4.71-1.51-4.05,1.12Z" transform="translate(57.59 0.44)"/></g><g class="cls-5"><path class="cls-6" d="M219.09,73.36a90.51,90.51,0,0,0,3.64-8.48c.89-2.43,1.51-5,2.51-7.35-.11.25.09-.21.13-.28s.18-.37.28-.55.53-.86.62-1a12.3,12.3,0,0,1,1.45-1.4c.18-.14,0,0,0,0l.27-.19c.2-.14.4-.28.61-.4A8.57,8.57,0,0,1,230,53a7.14,7.14,0,0,1,4-.37,8.69,8.69,0,0,1,5,3.27,2.11,2.11,0,0,0,3,0,2.17,2.17,0,0,0,0-3,12,12,0,0,0-15.1-3.1A13.1,13.1,0,0,0,222.39,54c-1.33,2-1.92,4.49-2.66,6.75a81.15,81.15,0,0,1-4.27,10.51c-1.19,2.42,2.43,4.55,3.63,2.12Z" transform="translate(57.59 0.44)"/></g><g class="cls-5"><path class="cls-6" d="M315,57.28a16.37,16.37,0,0,0,6.81-14.13c-.21-2.95-1.6-5.49-4.74-6a25.09,25.09,0,0,0-8.42.42,46.9,46.9,0,0,0-10.21,3.13c-4.87,2.1-9.44,4.51-13.09,8.44-6.41,6.88-9.54,16.18-10.64,25.37a54.4,54.4,0,0,0,0,13.19c.66,5.2,2,10.75,6.15,14.3,4.46,3.77,10.46,4.76,16.13,4.78a28.28,28.28,0,0,0,7.34-.71,31.19,31.19,0,0,0,9-4.1c2.27-1.46.16-5.09-2.12-3.62a24,24,0,0,1-12.24,4.2c-4.19.14-8.76,0-12.59-1.91-4.45-2.18-6.29-6.26-7.16-10.95a47.83,47.83,0,0,1-.67-11c.35-7.92,2.36-16,6.71-22.73a26.71,26.71,0,0,1,8.18-8.18c1-.62,2.06-1.18,3.13-1.7l1.7-.8a14,14,0,0,0,2.27-1l.12-.05c-.78.35-.05,0,.12,0,.58-.23,1.16-.45,1.75-.66a47.59,47.59,0,0,1,6.83-1.87,28.21,28.21,0,0,1,4-.5c1,0,2.55-.29,3.49.22s.76,1.69.77,2.49a12,12,0,0,1-.59,3.85,11.83,11.83,0,0,1-4.17,5.9,2.17,2.17,0,0,0-.75,2.88,2.11,2.11,0,0,0,2.87.75Z" transform="translate(57.59 0.44)"/></g><g class="cls-5"><path class="cls-6" d="M321.91,73.48c-2.58,2-1.87,5.73-1.52,8.53s.62,5.43.73,8.17c.13,3-.38,6.64,1.46,9.26s4.83,3.29,7.83,3.4a7.38,7.38,0,0,0,4.45-.84,6,6,0,0,0,2.52-3.9c.57-3.11-.76-5.55-2-8.23A35.67,35.67,0,0,1,333,81.4c-.49-2.54-.88-5.37-2.59-7.42a6.12,6.12,0,0,0-8.08-.83c-2.22,1.51-.12,5.15,2.12,3.62a2.49,2.49,0,0,1,2.4-.42c-.15-.07.31.26.23.19a2,2,0,0,1,.52.76,19.53,19.53,0,0,1,1.31,5,47.09,47.09,0,0,0,1.68,6.84c.71,2,2,3.88,2.54,5.94A3.87,3.87,0,0,1,333,98c-.54.92-1.67.69-2.6.66-1.88-.07-4.13-.34-4.75-2.42a12,12,0,0,1-.27-3.27c0-1.35-.05-2.69-.13-4-.12-2.17-.35-4.34-.62-6.5a30.32,30.32,0,0,1-.41-4.57c0-.2.15-.94,0-.35.05-.22.11-.44.17-.65-.18.56,0,0,.15-.17-.32.49.13-.08.32-.23a2.11,2.11,0,0,0,0-3A2.15,2.15,0,0,0,321.91,73.48Z" transform="translate(57.59 0.44)"/></g><g class="cls-5"><path class="cls-6" d="M330.06,64.48a7,7,0,0,1-.79-.19l-.34-.11-.12-.05c-.2-.08-.17-.06.12.05-.19,0-.67-.34-.83-.45s-.49-.38-.13-.07l-.4-.37c-.12-.12-.22-.23-.33-.36s.24.47-.1-.17c-.11-.2-.23-.38-.32-.58.18.38,0-.08-.05-.16a6.22,6.22,0,0,1-.17-.88c.08.56,0,0,0-.1s0-.34,0-.51a8.42,8.42,0,0,1,0-.87c0-.08.07-.67,0-.15a4.89,4.89,0,0,1,.09-.53,9.54,9.54,0,0,1,.31-1c-.16.44.05-.11.08-.17s.15-.27.23-.4a3.77,3.77,0,0,1,.26-.39c-.26.35.12-.14.15-.17s.28-.26.41-.39.12-.26-.12.08c.08-.12.32-.22.44-.3s.49-.28.75-.41c-.4.2.19-.07.23-.09.21-.07.42-.12.64-.18l.61-.12c-.57.1,0,0,.12,0a5.35,5.35,0,0,1,.8,0c-.33,0,.16,0,.23.07a3.24,3.24,0,0,1,.53.16c-.38-.14.17.08.21.11A4.25,4.25,0,0,1,333,56c.17.1.33.21.5.33l.24.17-.07,0,.28.22c.25.21.47.45.71.67.4.37-.1-.24.12.13l.22.39c.07.12.08.32,0-.09,0,.15.1.29.14.45s.07.31.11.47c-.12-.52,0,0,0,.1,0,.34,0,.68,0,1,0,.57.1-.42,0,.15,0,.12,0,.24-.08.36a7.49,7.49,0,0,1-.32,1.05c.16-.43-.07.13-.09.18s-.18.34-.28.5a4.76,4.76,0,0,1-.31.47c.25-.36-.12.15-.16.18l-.18.2c-.13.13-.27.25-.41.37s-.17.1-.21.17l.14-.11-.21.14a8,8,0,0,1-.73.45l-.42.2c.49-.24-.15,0-.26.09l-.33.09c-.1,0-.83.14-.32.09a5.25,5.25,0,0,1-.56,0c-.08,0-.85-.06-.42,0a2.15,2.15,0,0,0-2.58,1.46,2.11,2.11,0,0,0,1.46,2.58,9,9,0,0,0,8.14-3c2.52-3,3.42-7.77.76-10.94a10.81,10.81,0,0,0-4.18-3,8,8,0,0,0-5.83.16,8.52,8.52,0,0,0-4,3.17,9.6,9.6,0,0,0-1.45,5.43,8,8,0,0,0,2.43,6,8.35,8.35,0,0,0,4.14,2.07,2.15,2.15,0,0,0,2.58-1.46A2.11,2.11,0,0,0,330.06,64.48Z" transform="translate(57.59 0.44)"/></g><g class="cls-5"><path class="cls-6" d="M343.66,72.17A119.77,119.77,0,0,1,349.08,99c.23,2.67,4.43,2.69,4.2,0a124.36,124.36,0,0,0-5.57-27.94c-.83-2.56-4.88-1.46-4,1.12Z" transform="translate(57.59 0.44)"/></g><g class="cls-5"><path class="cls-6" d="M350,83l11.55-13.54a2.1,2.1,0,0,0-3-3Q352.79,73.25,347,80a2.13,2.13,0,0,0,0,3,2.1,2.1,0,0,0,3,0Z" transform="translate(57.59 0.44)"/></g><g class="cls-5"><path class="cls-6" d="M377.94,67.72a25.59,25.59,0,0,0-9.58,7.55c-2.65,3.37-5,7.76-5.07,12.14s2.84,8,6.62,9.88c4.47,2.17,9.47,1.79,14.26,1.27a2.16,2.16,0,0,0,2.1-2.1,2.11,2.11,0,0,0-2.1-2.1c-3.84.42-8.13,1-11.81-.54-2.94-1.24-5.24-3.87-4.82-7.21a18.83,18.83,0,0,1,4.51-9.26,22.75,22.75,0,0,1,8-6,2.12,2.12,0,0,0,.76-2.88,2.16,2.16,0,0,0-2.88-.75Z" transform="translate(57.59 0.44)"/></g><g class="cls-5"><path class="cls-6" d="M392.06,71.08a49.08,49.08,0,0,0,1.17,14,46,46,0,0,0,2.16,6.87c.81,2,1.57,4.24,3.73,5.18a14.13,14.13,0,0,0,5.74.83A9.3,9.3,0,0,0,410,96.51a6.81,6.81,0,0,0,2.71-5.33c.19-2.46.14-5,.2-7.43L413.31,66c.06-2.7-4.14-2.7-4.2,0l-.32,13.24-.15,6.49c-.05,1.92.2,4.15-.25,6-.63,2.59-4.61,2.07-6.57,1.75-.76-.13-1.22-.23-1.58-.92a19.36,19.36,0,0,1-1.05-2.43,46.93,46.93,0,0,1-1.81-5.8,45.08,45.08,0,0,1-1.12-13.3c.16-2.7-4-2.7-4.2,0Z" transform="translate(57.59 0.44)"/></g><g class="cls-5"><path class="cls-6" d="M425.6,62.81c-2.41.47-3.07,3-3.2,5.13-.19,3-.34,6-.51,8.94l-1,17.64c-.15,2.7,4.05,2.69,4.2,0L426,79.36l.42-7.45.21-3.72c0-.4.12-.8.15-1.19,0-.66.21-.19,0-.14,2.65-.52,1.53-4.57-1.12-4Z" transform="translate(57.59 0.44)"/></g><g class="cls-5"><path class="cls-6" d="M420.72,92.82c0,3.35,2.06,7.85,5.9,8.08,4.71.28,6-5.63,6.54-9.18,1.39-9.58-2.29-18.59-6-27.23a2.11,2.11,0,0,0-2.87-.76,2.16,2.16,0,0,0-.75,2.88c2.79,6.57,5.67,13.42,5.71,20.67a22.75,22.75,0,0,1-.44,4.8,12.22,12.22,0,0,1-1.3,4.15c-.69,1-1.45,0-1.95-.71a4.76,4.76,0,0,1-.68-2.7c0-2.7-4.19-2.71-4.2,0Z" transform="translate(57.59 0.44)"/></g><g class="cls-5"><path class="cls-6" d="M418.05,43.61c-.24,1.58-.49,3.16-.72,4.74a17.58,17.58,0,0,0-.23,5c.38,2.79,2.24,5.69,5.19,6.23A6.28,6.28,0,0,0,429,55.77a11.71,11.71,0,0,0,.73-8.33c-1-3.28-3.87-6-7.43-5.91a2.1,2.1,0,0,0,0,4.2h.42s.34,0,.13,0,.11,0,.12,0l.4.12c.33.09,0-.07.26.11a6.46,6.46,0,0,1,.71.44c-.22-.17.23.23.29.29s.37.41.32.34a6.77,6.77,0,0,1,.58,1,7.57,7.57,0,0,1,.38,1.47c0,.25,0,.07,0,0,0,.16,0,.31,0,.47s0,.63,0,.94,0,.47,0,.71c0,.05-.07.44,0,.09a2.56,2.56,0,0,1-.05.27,7.8,7.8,0,0,1-.35,1.28c0,.06-.18.42-.07.2s-.05.08-.06.09c-.1.2-.2.4-.31.59s-.32.47-.21.32-.08.1-.12.14l-.25.26s-.32.3-.12.13,0,0-.07,0-.57.32-.35.22-.26.06-.32.09c-.23.13.3,0,0,0-.11,0-.25,0-.37,0s0,0,.08,0l-.37-.09c-.34-.08.1.1-.19-.09l-.33-.2s.22.19,0,0a5.69,5.69,0,0,1-.54-.56c-.16-.19,0,0,0,0l-.21-.34a5.36,5.36,0,0,1-.28-.53c.15.34-.06-.27-.09-.37a7.07,7.07,0,0,1-.14-.7,14.87,14.87,0,0,1,.23-3.69c.22-1.41.44-2.82.65-4.23a2.1,2.1,0,1,0-4.05-1.12Z" transform="translate(57.59 0.44)"/></g><g class="cls-5"><path class="cls-6" d="M451.05,37.54c2.07,11.46,3.94,23,5,34.59a100.48,100.48,0,0,1,.21,20.07,2.29,2.29,0,0,1-.07.44l-.12.8q-.13.74-.3,1.47a21.63,21.63,0,0,1-.73,2.46c-.13.36-.2.46,0,.11l-.23.48a7.9,7.9,0,0,1-.47.85c-.07.11-.15.22-.22.34-.3.5.31-.3,0,0s-.36.39-.55.58-.18.14-.26.22.51-.29.06-.06c-.2.11-.42.22-.61.34.45-.29.28-.09-.21,0a5.56,5.56,0,0,1-1.36.15,20.34,20.34,0,0,1-3.12-.29c-2-.3-4.22-.89-6.21-.32-2.31.67-3,3.07-2,5.11.83,1.79,3,3.39,3.4,5.16.06.26-.1.27,0,.37s.23-.56.08-.22a.75.75,0,0,1-.18.28c.56-.39,0,0-.18.11.47-.45-.11.06-.31.17l-.39.2c-.4.21.33-.11-.09,0s-.84.29-1.27.41a20.93,20.93,0,0,1-2.62.52,64.76,64.76,0,0,1-9.65.4c-2.7,0-2.7,4.17,0,4.2,4.74.06,10.14.24,14.66-1.48,3.07-1.17,5.16-3.69,3.67-7.08a12.31,12.31,0,0,0-1.59-2.5c-.6-.77-1.14-1.8-1.78-2.52.28.32-.12-.07,0,0v.2c0-.37,0-.23-.16.41l-.15.17c-.24.16-.26.18-.06,0,0,.21-.31,0,.17,0l.77,0c.45,0,.9.08,1.34.14,3.25.47,7.19,1.5,10.15-.5,2.8-1.9,3.91-5.46,4.5-8.63,1.15-6.29.9-12.83.46-19.18a360.13,360.13,0,0,0-5.39-39.23A2.12,2.12,0,0,0,452.51,35a2.14,2.14,0,0,0-1.46,2.58Z" transform="translate(57.59 0.44)"/></g><g class="cls-5"><path class="cls-6" d="M443.83,63.24c-.86.84-1,1.15-.35.93.07.16.24.17.5,0,.5,0,1,0,1.49,0h24.26c2.7,0,2.7-4.2,0-4.2h-25c-2.12,0-5.25.39-5.1,3.25.15,2.69,4.35,2.71,4.2,0Z" transform="translate(57.59 0.44)"/></g><g class="cls-5"><path class="cls-6" d="M185.36,129.57q37.92,1.47,75.89,1,37.71-.47,75.36-2.82,21.28-1.33,42.54-3.29a2.15,2.15,0,0,0,2.1-2.1,2.13,2.13,0,0,0-2.1-2.1q-37.8,3.47-75.74,5-37.68,1.53-75.4,1.14-21.33-.23-42.65-1c-2.7-.11-2.7,4.09,0,4.2Z" transform="translate(57.59 0.44)"/></g><path class="cls-7" d="M165.5,71.5" transform="translate(57.59 0.44)"/><path class="cls-8" d="M220.5,160.5" transform="translate(57.59 0.44)"/><path class="cls-8" d="M367.5,159.5" transform="translate(57.59 0.44)"/><path class="cls-8" d="M327.5,174.5" transform="translate(57.59 0.44)"/><path class="cls-8" d="M376.5,188.5" transform="translate(57.59 0.44)"/><path class="cls-8" d="M342.5,197.5" transform="translate(57.59 0.44)"/></g></svg>